<?xml version="1.0" encoding="utf-8"?>
<!-- Generator: Adobe Illustrator 19.1.0, SVG Export Plug-In . SVG Version: 6.00 Build 0)  -->
<svg version="1.1" id="Layer_1" xmlns="http://www.w3.org/2000/svg" xmlns:xlink="http://www.w3.org/1999/xlink" x="0px" y="0px"
	 viewBox="0 0 458.971 101.98" enable-background="new 0 0 458.971 101.98" xml:space="preserve">
<g>
	<rect x="0" y="0.02" fill="#961B1E" width="101.936" height="101.94"/>
	<rect x="0.471" y="1.726" fill="#FFFFFF" width="101" height="99.5"/>
	<g id="XMLID_79_">
		<path id="XMLID_80_" fill="#961B1E" d="M98.64,78.425c-1.603,0.432-3.308,0.784-5.114,1.066c-1.807,0.283-3.614,0.536-5.416,0.767
			c-1.806,0.227-3.448,0.342-4.921,0.342c-4.529,0-8.612-0.548-12.247-1.644c-3.635-1.091-6.728-2.783-9.269-5.069
			c-2.543-2.286-4.504-5.133-5.876-8.537c-1.372-3.408-2.057-7.347-2.057-11.817c0-1.212,0.06-2.385,0.169-3.519
			c-0.041,0.192-0.08,0.376-0.122,0.573c-0.687,3.151-1.514,6.966-2.482,11.436c-0.556,2.645-1.051,4.958-1.481,6.94
			c-0.436,1.983-0.852,3.712-1.258,5.185c-0.409,1.477-0.801,2.731-1.184,3.776c-0.379,1.041-0.8,1.918-1.256,2.629
			c-0.559,1.122-1.3,2.196-2.212,3.246c-0.912,1.04-1.944,1.978-3.089,2.817c-1.143,0.838-2.299,1.562-3.47,2.17
			c-1.167,0.612-2.335,1.049-3.506,1.297l-0.379-1.978c0.508-0.102,1.051-0.269,1.64-0.497c0.584-0.231,1.194-0.689,1.828-1.374
			c0.636-0.685,1.334-1.678,2.1-2.975c0.76-1.297,1.522-3.01,2.284-5.146c0.507-1.524,1.079-3.544,1.715-6.062
			c0.638-2.514,1.312-5.283,2.023-8.31c0.707-3.023,1.419-6.212,2.13-9.569c0.717-3.356,1.402-6.66,2.06-9.91
			c0.659-3.254,1.261-6.328,1.794-9.227c0.533-2.898,0.981-5.388,1.333-7.471c0.456,0.098,0.976,0.171,1.563,0.22
			c0.585,0.049,1.156,0.073,1.715,0.073c0.608,0,1.223-0.023,1.833-0.073c0.608-0.049,1.167-0.122,1.674-0.22
			c-0.713,2.693-1.329,5.157-1.866,7.394c-0.533,2.237-1.079,4.615-1.64,7.132c-0.077,0.338-0.154,0.702-0.235,1.056
			c0.145-0.392,0.293-0.786,0.451-1.167c1.424-3.38,3.432-6.238,6.027-8.58c2.59-2.334,5.731-4.115,9.417-5.335
			c3.687-1.22,7.764-1.828,12.238-1.828c2.59,0,4.892,0.139,6.9,0.415c2.006,0.278,3.783,0.644,5.335,1.098
			c0.805,0.238,1.563,0.482,2.267,0.73l-1.833,4.401c-0.809-0.55-1.653-1.066-2.569-1.52c-1.398-0.685-2.95-1.244-4.649-1.676
			c-1.704-0.433-3.519-0.649-5.451-0.649c-3.157,0-6.094,0.484-8.809,1.452c-2.723,0.967-5.082,2.453-7.09,4.463
			c-2.006,2.012-3.584,4.553-4.729,7.632c-1.143,3.083-1.715,6.726-1.715,10.951c0,3.716,0.507,7.072,1.526,10.074
			c1.019,3.001,2.507,5.531,4.466,7.591c1.957,2.064,4.348,3.652,7.171,4.774c2.821,1.118,6.017,1.678,9.575,1.678
			c1.07,0,2.186-0.051,3.359-0.153c1.171-0.103,2.306-0.253,3.395-0.459c1.096-0.201,2.108-0.458,3.05-0.761
			c0.942-0.305,1.745-0.664,2.408-1.071c0.047-1.529,0.081-3.052,0.107-4.576c0.025-1.529,0.039-3.079,0.039-4.663
			c0-1.777-0.039-3.557-0.12-5.339c-0.077-1.78-0.169-3.485-0.272-5.112c1.265,0.253,2.487,0.377,3.656,0.377
			c0.557,0,1.115-0.021,1.674-0.072c0.237-0.021,0.466-0.058,0.694-0.098V0.02H0v59.432c0.955-2.125,1.923-4.258,2.867-6.377
			c3.913-8.792,7.854-17.741,11.817-26.839h1.449c1.218,2.948,2.539,6.138,3.962,9.569c1.424,3.432,2.873,6.902,4.348,10.408
			c1.473,3.506,2.948,6.99,4.423,10.45c1.475,3.455,2.86,6.67,4.155,9.646c1.295,2.972,2.462,5.631,3.507,7.972
			c1.04,2.333,1.892,4.115,2.552,5.335c-0.711-0.099-1.385-0.146-2.019-0.146h-4.04c-0.635,0-1.308,0.048-2.025,0.146
			c-0.353-1.169-0.835-2.578-1.445-4.231c-0.612-1.653-1.282-3.382-2.023-5.184c-0.734-1.802-1.483-3.635-2.246-5.489
			c-0.762-1.858-11.662-28.153-11.662-28.153S2.819,62.247,0,69.294v32.666h101.936V77.424
			C101.002,77.748,99.908,78.082,98.64,78.425z"/>
	</g>
</g>
<text transform="matrix(1 0 0 1 128.9706 46.0657)"><tspan x="0" y="0" fill="#FFFFFF" font-family="'OpenSans-Light'" font-size="28px">THE LAW OFFICE OF</tspan><tspan x="0" y="33.6" fill="#FFFFFF" font-family="'OpenSans-Bold'" font-size="28px">ANTHONY J. GARAFOLA</tspan></text>
</svg>
